<mxfile host="app.diagrams.net" modified="2022-12-13T13:18:56.785Z" agent="5.0 (X11; Ubuntu)" etag="7SfRrPk_qnaTo-oMK714" version="20.6.2" type="github">
  <diagram id="Yr7s-QWioUc8-iMmHpMV" name="Страница 1">
    <mxGraphModel dx="1673" dy="848" grid="1" gridSize="10" guides="1" tooltips="1" connect="1" arrows="1" fold="1" page="1" pageScale="1" pageWidth="827" pageHeight="1169" math="0" shadow="0">
      <root>
        <mxCell id="0" />
        <mxCell id="1" parent="0" />
        <mxCell id="2BTD2QdhYIqXiYjfE8cA-1" value="&lt;table style=&quot;table-layout:fixed;font-size:10pt;font-family:Arial;width:0px;border-collapse:collapse;border:none&quot; dir=&quot;ltr&quot; cellspacing=&quot;0&quot; cellpadding=&quot;0&quot; border=&quot;1&quot;&gt;&lt;colgroup&gt;&lt;col width=&quot;112&quot;&gt;&lt;col width=&quot;14&quot;&gt;&lt;/colgroup&gt;&lt;tbody&gt;&lt;tr style=&quot;height:21px;&quot;&gt;&lt;td data-sheets-value=&quot;{&amp;quot;1&amp;quot;:2,&amp;quot;2&amp;quot;:&amp;quot;Команда 1&amp;quot;}&quot; style=&quot;overflow:hidden;padding:2px 3px 2px 3px;vertical-align:bottom;&quot;&gt;Команда 1&lt;/td&gt;&lt;td style=&quot;overflow:hidden;padding:2px 3px 2px 3px;vertical-align:bottom;&quot;&gt;&lt;br&gt;&lt;/td&gt;&lt;/tr&gt;&lt;tr style=&quot;height:21px;&quot;&gt;&lt;td data-sheets-value=&quot;{&amp;quot;1&amp;quot;:2,&amp;quot;2&amp;quot;:&amp;quot;Дарья, Аркадий&amp;quot;}&quot; style=&quot;overflow:hidden;padding:2px 3px 2px 3px;vertical-align:bottom;&quot;&gt;Дарья, Аркадий&lt;/td&gt;&lt;td data-sheets-value=&quot;{&amp;quot;1&amp;quot;:3,&amp;quot;3&amp;quot;:0}&quot; style=&quot;overflow:hidden;padding:2px 3px 2px 3px;vertical-align:bottom;text-align:right;&quot;&gt;0&lt;/td&gt;&lt;/tr&gt;&lt;/tbody&gt;&lt;/table&gt;" style="rounded=0;whiteSpace=wrap;html=1;" parent="1" vertex="1">
          <mxGeometry x="230" y="250" width="120" height="60" as="geometry" />
        </mxCell>
        <mxCell id="2BTD2QdhYIqXiYjfE8cA-2" value="&lt;table style=&quot;table-layout:fixed;font-size:10pt;font-family:Arial;width:0px;border-collapse:collapse;border:none&quot; dir=&quot;ltr&quot; cellspacing=&quot;0&quot; cellpadding=&quot;0&quot; border=&quot;1&quot;&gt;&lt;colgroup&gt;&lt;col width=&quot;112&quot;&gt;&lt;col width=&quot;14&quot;&gt;&lt;/colgroup&gt;&lt;tbody&gt;&lt;tr style=&quot;height:21px;&quot;&gt;&lt;td data-sheets-value=&quot;{&amp;quot;1&amp;quot;:2,&amp;quot;2&amp;quot;:&amp;quot;Команда 2&amp;quot;}&quot; style=&quot;overflow:hidden;padding:2px 3px 2px 3px;vertical-align:bottom;&quot;&gt;Команда 2&lt;/td&gt;&lt;td style=&quot;overflow:hidden;padding:2px 3px 2px 3px;vertical-align:bottom;&quot;&gt;&lt;br&gt;&lt;/td&gt;&lt;/tr&gt;&lt;tr style=&quot;height:21px;&quot;&gt;&lt;td data-sheets-value=&quot;{&amp;quot;1&amp;quot;:2,&amp;quot;2&amp;quot;:&amp;quot;Сергей, Ксения&amp;quot;}&quot; style=&quot;overflow:hidden;padding:2px 3px 2px 3px;vertical-align:bottom;&quot;&gt;Сергей, Ксения&lt;/td&gt;&lt;td data-sheets-value=&quot;{&amp;quot;1&amp;quot;:3,&amp;quot;3&amp;quot;:2}&quot; style=&quot;overflow:hidden;padding:2px 3px 2px 3px;vertical-align:bottom;text-align:right;&quot;&gt;2&lt;/td&gt;&lt;/tr&gt;&lt;/tbody&gt;&lt;/table&gt;" style="rounded=0;whiteSpace=wrap;html=1;" parent="1" vertex="1">
          <mxGeometry x="230" y="360" width="120" height="60" as="geometry" />
        </mxCell>
        <mxCell id="2BTD2QdhYIqXiYjfE8cA-3" value="&lt;table style=&quot;table-layout:fixed;font-size:10pt;font-family:Arial;width:0px;border-collapse:collapse;border:none&quot; dir=&quot;ltr&quot; cellspacing=&quot;0&quot; cellpadding=&quot;0&quot; border=&quot;1&quot;&gt;&lt;colgroup&gt;&lt;col width=&quot;112&quot;&gt;&lt;col width=&quot;14&quot;&gt;&lt;/colgroup&gt;&lt;tbody&gt;&lt;tr style=&quot;height:21px;&quot;&gt;&lt;td data-sheets-value=&quot;{&amp;quot;1&amp;quot;:2,&amp;quot;2&amp;quot;:&amp;quot;Команда 3&amp;quot;}&quot; style=&quot;overflow:hidden;padding:2px 3px 2px 3px;vertical-align:bottom;&quot;&gt;Команда 3&lt;/td&gt;&lt;td style=&quot;overflow:hidden;padding:2px 3px 2px 3px;vertical-align:bottom;&quot;&gt;&lt;br&gt;&lt;/td&gt;&lt;/tr&gt;&lt;tr style=&quot;height:21px;&quot;&gt;&lt;td data-sheets-value=&quot;{&amp;quot;1&amp;quot;:2,&amp;quot;2&amp;quot;:&amp;quot;Борис, Валентин&amp;quot;}&quot; style=&quot;overflow:hidden;padding:2px 3px 2px 3px;vertical-align:bottom;&quot;&gt;Борис, Валентин&lt;/td&gt;&lt;td data-sheets-value=&quot;{&amp;quot;1&amp;quot;:3,&amp;quot;3&amp;quot;:2}&quot; style=&quot;overflow:hidden;padding:2px 3px 2px 3px;vertical-align:bottom;text-align:right;&quot;&gt;2&lt;/td&gt;&lt;/tr&gt;&lt;/tbody&gt;&lt;/table&gt;" style="rounded=0;whiteSpace=wrap;html=1;" parent="1" vertex="1">
          <mxGeometry x="230" y="470" width="120" height="60" as="geometry" />
        </mxCell>
        <mxCell id="2BTD2QdhYIqXiYjfE8cA-4" value="&lt;table style=&quot;table-layout:fixed;font-size:10pt;font-family:Arial;width:0px;border-collapse:collapse;border:none&quot; dir=&quot;ltr&quot; cellspacing=&quot;0&quot; cellpadding=&quot;0&quot; border=&quot;1&quot;&gt;&lt;colgroup&gt;&lt;col width=&quot;112&quot;&gt;&lt;col width=&quot;14&quot;&gt;&lt;/colgroup&gt;&lt;tbody&gt;&lt;tr style=&quot;height:21px;&quot;&gt;&lt;td data-sheets-value=&quot;{&amp;quot;1&amp;quot;:2,&amp;quot;2&amp;quot;:&amp;quot;Команда 4&amp;quot;}&quot; style=&quot;overflow:hidden;padding:2px 3px 2px 3px;vertical-align:bottom;&quot;&gt;Команда 4&lt;/td&gt;&lt;td style=&quot;overflow:hidden;padding:2px 3px 2px 3px;vertical-align:bottom;&quot;&gt;&lt;br&gt;&lt;/td&gt;&lt;/tr&gt;&lt;tr style=&quot;height:21px;&quot;&gt;&lt;td data-sheets-value=&quot;{&amp;quot;1&amp;quot;:2,&amp;quot;2&amp;quot;:&amp;quot;Иван, Денис&amp;quot;}&quot; style=&quot;overflow:hidden;padding:2px 3px 2px 3px;vertical-align:bottom;&quot;&gt;Иван, Денис&lt;/td&gt;&lt;td data-sheets-value=&quot;{&amp;quot;1&amp;quot;:3,&amp;quot;3&amp;quot;:1}&quot; style=&quot;overflow:hidden;padding:2px 3px 2px 3px;vertical-align:bottom;text-align:right;&quot;&gt;1&lt;/td&gt;&lt;/tr&gt;&lt;/tbody&gt;&lt;/table&gt;" style="rounded=0;whiteSpace=wrap;html=1;" parent="1" vertex="1">
          <mxGeometry x="230" y="585" width="120" height="60" as="geometry" />
        </mxCell>
        <mxCell id="2BTD2QdhYIqXiYjfE8cA-5" value="" style="endArrow=none;html=1;rounded=0;exitX=1;exitY=0.5;exitDx=0;exitDy=0;" parent="1" source="2BTD2QdhYIqXiYjfE8cA-1" edge="1">
          <mxGeometry width="50" height="50" relative="1" as="geometry">
            <mxPoint x="450" y="280" as="sourcePoint" />
            <mxPoint x="490" y="280" as="targetPoint" />
          </mxGeometry>
        </mxCell>
        <mxCell id="2BTD2QdhYIqXiYjfE8cA-6" value="" style="endArrow=none;html=1;rounded=0;exitX=1;exitY=0.5;exitDx=0;exitDy=0;" parent="1" edge="1">
          <mxGeometry width="50" height="50" relative="1" as="geometry">
            <mxPoint x="350" y="614.5" as="sourcePoint" />
            <mxPoint x="490" y="614.5" as="targetPoint" />
          </mxGeometry>
        </mxCell>
        <mxCell id="2BTD2QdhYIqXiYjfE8cA-7" value="" style="endArrow=none;html=1;rounded=0;exitX=1;exitY=0.5;exitDx=0;exitDy=0;" parent="1" edge="1">
          <mxGeometry width="50" height="50" relative="1" as="geometry">
            <mxPoint x="350" y="499.5" as="sourcePoint" />
            <mxPoint x="490" y="499.5" as="targetPoint" />
          </mxGeometry>
        </mxCell>
        <mxCell id="2BTD2QdhYIqXiYjfE8cA-8" value="" style="endArrow=none;html=1;rounded=0;exitX=1;exitY=0.5;exitDx=0;exitDy=0;" parent="1" edge="1">
          <mxGeometry width="50" height="50" relative="1" as="geometry">
            <mxPoint x="350" y="389.5" as="sourcePoint" />
            <mxPoint x="490" y="389.5" as="targetPoint" />
          </mxGeometry>
        </mxCell>
        <mxCell id="2BTD2QdhYIqXiYjfE8cA-9" value="&lt;table style=&quot;table-layout:fixed;font-size:10pt;font-family:Arial;width:0px;border-collapse:collapse;border:none&quot; dir=&quot;ltr&quot; cellspacing=&quot;0&quot; cellpadding=&quot;0&quot; border=&quot;1&quot;&gt;&lt;colgroup&gt;&lt;col width=&quot;112&quot;&gt;&lt;col width=&quot;14&quot;&gt;&lt;/colgroup&gt;&lt;tbody&gt;&lt;tr style=&quot;height:21px;&quot;&gt;&lt;td data-sheets-value=&quot;{&amp;quot;1&amp;quot;:2,&amp;quot;2&amp;quot;:&amp;quot;Команда 2&amp;quot;}&quot; style=&quot;overflow:hidden;padding:2px 3px 2px 3px;vertical-align:bottom;&quot;&gt;Команда 2&lt;/td&gt;&lt;td style=&quot;overflow:hidden;padding:2px 3px 2px 3px;vertical-align:bottom;&quot;&gt;&lt;br&gt;&lt;/td&gt;&lt;/tr&gt;&lt;tr style=&quot;height:21px;&quot;&gt;&lt;td data-sheets-value=&quot;{&amp;quot;1&amp;quot;:2,&amp;quot;2&amp;quot;:&amp;quot;Сергей, Ксения&amp;quot;}&quot; style=&quot;overflow:hidden;padding:2px 3px 2px 3px;vertical-align:bottom;&quot;&gt;Сергей, Ксения&lt;/td&gt;&lt;td data-sheets-value=&quot;{&amp;quot;1&amp;quot;:3,&amp;quot;3&amp;quot;:2}&quot; style=&quot;overflow:hidden;padding:2px 3px 2px 3px;vertical-align:bottom;text-align:right;&quot;&gt;2&lt;br&gt;&lt;/td&gt;&lt;/tr&gt;&lt;/tbody&gt;&lt;/table&gt;" style="rounded=0;whiteSpace=wrap;html=1;" parent="1" vertex="1">
          <mxGeometry x="430" y="310" width="120" height="60" as="geometry" />
        </mxCell>
        <mxCell id="2BTD2QdhYIqXiYjfE8cA-10" value="&lt;table style=&quot;table-layout:fixed;font-size:10pt;font-family:Arial;width:0px;border-collapse:collapse;border:none&quot; dir=&quot;ltr&quot; cellspacing=&quot;0&quot; cellpadding=&quot;0&quot; border=&quot;1&quot;&gt;&lt;colgroup&gt;&lt;col width=&quot;112&quot;&gt;&lt;col width=&quot;14&quot;&gt;&lt;/colgroup&gt;&lt;tbody&gt;&lt;tr style=&quot;height:21px;&quot;&gt;&lt;td data-sheets-value=&quot;{&amp;quot;1&amp;quot;:2,&amp;quot;2&amp;quot;:&amp;quot;Команда 3&amp;quot;}&quot; style=&quot;overflow:hidden;padding:2px 3px 2px 3px;vertical-align:bottom;&quot;&gt;Команда 3&lt;/td&gt;&lt;td style=&quot;overflow:hidden;padding:2px 3px 2px 3px;vertical-align:bottom;&quot;&gt;&lt;br&gt;&lt;/td&gt;&lt;/tr&gt;&lt;tr style=&quot;height:21px;&quot;&gt;&lt;td data-sheets-value=&quot;{&amp;quot;1&amp;quot;:2,&amp;quot;2&amp;quot;:&amp;quot;Борис, Валентин&amp;quot;}&quot; style=&quot;overflow:hidden;padding:2px 3px 2px 3px;vertical-align:bottom;&quot;&gt;Борис, Валентин&lt;/td&gt;&lt;td data-sheets-value=&quot;{&amp;quot;1&amp;quot;:3,&amp;quot;3&amp;quot;:2}&quot; style=&quot;overflow:hidden;padding:2px 3px 2px 3px;vertical-align:bottom;text-align:right;&quot;&gt;1&lt;br&gt;&lt;/td&gt;&lt;/tr&gt;&lt;/tbody&gt;&lt;/table&gt;" style="rounded=0;whiteSpace=wrap;html=1;" parent="1" vertex="1">
          <mxGeometry x="430" y="525" width="120" height="60" as="geometry" />
        </mxCell>
        <mxCell id="2BTD2QdhYIqXiYjfE8cA-11" value="" style="endArrow=none;html=1;rounded=0;entryX=0.5;entryY=1;entryDx=0;entryDy=0;" parent="1" target="2BTD2QdhYIqXiYjfE8cA-9" edge="1">
          <mxGeometry width="50" height="50" relative="1" as="geometry">
            <mxPoint x="490" y="390" as="sourcePoint" />
            <mxPoint x="520" y="440" as="targetPoint" />
          </mxGeometry>
        </mxCell>
        <mxCell id="2BTD2QdhYIqXiYjfE8cA-14" value="" style="endArrow=none;html=1;rounded=0;exitX=0.5;exitY=0;exitDx=0;exitDy=0;" parent="1" source="2BTD2QdhYIqXiYjfE8cA-9" edge="1">
          <mxGeometry width="50" height="50" relative="1" as="geometry">
            <mxPoint x="470" y="490" as="sourcePoint" />
            <mxPoint x="490" y="280" as="targetPoint" />
          </mxGeometry>
        </mxCell>
        <mxCell id="2BTD2QdhYIqXiYjfE8cA-15" value="" style="endArrow=none;html=1;rounded=0;entryX=0.5;entryY=0;entryDx=0;entryDy=0;" parent="1" target="2BTD2QdhYIqXiYjfE8cA-10" edge="1">
          <mxGeometry width="50" height="50" relative="1" as="geometry">
            <mxPoint x="490" y="500" as="sourcePoint" />
            <mxPoint x="490" y="520" as="targetPoint" />
          </mxGeometry>
        </mxCell>
        <mxCell id="2BTD2QdhYIqXiYjfE8cA-19" value="" style="endArrow=none;html=1;rounded=0;entryX=0.5;entryY=1;entryDx=0;entryDy=0;" parent="1" target="2BTD2QdhYIqXiYjfE8cA-10" edge="1">
          <mxGeometry width="50" height="50" relative="1" as="geometry">
            <mxPoint x="490" y="610" as="sourcePoint" />
            <mxPoint x="490" y="590" as="targetPoint" />
          </mxGeometry>
        </mxCell>
        <mxCell id="2BTD2QdhYIqXiYjfE8cA-22" value="" style="endArrow=none;html=1;rounded=0;exitX=1;exitY=0.5;exitDx=0;exitDy=0;" parent="1" source="2BTD2QdhYIqXiYjfE8cA-10" edge="1">
          <mxGeometry width="50" height="50" relative="1" as="geometry">
            <mxPoint x="560" y="554.58" as="sourcePoint" />
            <mxPoint x="700" y="554.58" as="targetPoint" />
          </mxGeometry>
        </mxCell>
        <mxCell id="2BTD2QdhYIqXiYjfE8cA-23" value="" style="endArrow=none;html=1;rounded=0;exitX=1;exitY=0.5;exitDx=0;exitDy=0;" parent="1" source="2BTD2QdhYIqXiYjfE8cA-9" edge="1">
          <mxGeometry width="50" height="50" relative="1" as="geometry">
            <mxPoint x="560" y="339.58" as="sourcePoint" />
            <mxPoint x="700" y="339.58" as="targetPoint" />
          </mxGeometry>
        </mxCell>
        <mxCell id="2BTD2QdhYIqXiYjfE8cA-24" value="&lt;table style=&quot;table-layout:fixed;font-size:10pt;font-family:Arial;width:0px;border-collapse:collapse;border:none&quot; dir=&quot;ltr&quot; cellspacing=&quot;0&quot; cellpadding=&quot;0&quot; border=&quot;1&quot;&gt;&lt;colgroup&gt;&lt;col width=&quot;112&quot;&gt;&lt;col width=&quot;14&quot;&gt;&lt;/colgroup&gt;&lt;tbody&gt;&lt;tr style=&quot;height:21px;&quot;&gt;&lt;td data-sheets-value=&quot;{&amp;quot;1&amp;quot;:2,&amp;quot;2&amp;quot;:&amp;quot;Команда 2&amp;quot;}&quot; style=&quot;overflow:hidden;padding:2px 3px 2px 3px;vertical-align:bottom;&quot;&gt;Команда 2&lt;/td&gt;&lt;td style=&quot;overflow:hidden;padding:2px 3px 2px 3px;vertical-align:bottom;&quot;&gt;&lt;br&gt;&lt;/td&gt;&lt;/tr&gt;&lt;tr style=&quot;height:21px;&quot;&gt;&lt;td data-sheets-value=&quot;{&amp;quot;1&amp;quot;:2,&amp;quot;2&amp;quot;:&amp;quot;Сергей, Ксения&amp;quot;}&quot; style=&quot;overflow:hidden;padding:2px 3px 2px 3px;vertical-align:bottom;&quot;&gt;Сергей, Ксения&lt;/td&gt;&lt;td data-sheets-value=&quot;{&amp;quot;1&amp;quot;:3,&amp;quot;3&amp;quot;:2}&quot; style=&quot;overflow:hidden;padding:2px 3px 2px 3px;vertical-align:bottom;text-align:right;&quot;&gt;1&lt;br&gt;&lt;/td&gt;&lt;/tr&gt;&lt;/tbody&gt;&lt;/table&gt;" style="rounded=0;whiteSpace=wrap;html=1;" parent="1" vertex="1">
          <mxGeometry x="640" y="415.5" width="120" height="60" as="geometry" />
        </mxCell>
        <mxCell id="2BTD2QdhYIqXiYjfE8cA-25" value="" style="endArrow=none;html=1;rounded=0;" parent="1" edge="1">
          <mxGeometry width="50" height="50" relative="1" as="geometry">
            <mxPoint x="700" y="340" as="sourcePoint" />
            <mxPoint x="700" y="410.5" as="targetPoint" />
          </mxGeometry>
        </mxCell>
        <mxCell id="2BTD2QdhYIqXiYjfE8cA-26" value="" style="endArrow=none;html=1;rounded=0;" parent="1" edge="1">
          <mxGeometry width="50" height="50" relative="1" as="geometry">
            <mxPoint x="700" y="560" as="sourcePoint" />
            <mxPoint x="700" y="480.5" as="targetPoint" />
          </mxGeometry>
        </mxCell>
        <mxCell id="2BTD2QdhYIqXiYjfE8cA-27" value="&amp;nbsp;" style="text;whiteSpace=wrap;html=1;" parent="1" vertex="1">
          <mxGeometry x="850" y="290" width="40" height="40" as="geometry" />
        </mxCell>
        <mxCell id="2BTD2QdhYIqXiYjfE8cA-28" value="&lt;table style=&quot;table-layout:fixed;font-size:10pt;font-family:Arial;width:0px;border-collapse:collapse;border:none&quot; dir=&quot;ltr&quot; cellspacing=&quot;0&quot; cellpadding=&quot;0&quot; border=&quot;1&quot;&gt;&lt;colgroup&gt;&lt;col width=&quot;112&quot;&gt;&lt;col width=&quot;14&quot;&gt;&lt;/colgroup&gt;&lt;tbody&gt;&lt;tr style=&quot;height:21px;&quot;&gt;&lt;td data-sheets-value=&quot;{&amp;quot;1&amp;quot;:2,&amp;quot;2&amp;quot;:&amp;quot;Команда 1&amp;quot;}&quot; style=&quot;overflow:hidden;padding:2px 3px 2px 3px;vertical-align:bottom;&quot;&gt;Команда 1&lt;/td&gt;&lt;td style=&quot;overflow:hidden;padding:2px 3px 2px 3px;vertical-align:bottom;&quot;&gt;&lt;br&gt;&lt;/td&gt;&lt;/tr&gt;&lt;tr style=&quot;height:21px;&quot;&gt;&lt;td data-sheets-value=&quot;{&amp;quot;1&amp;quot;:2,&amp;quot;2&amp;quot;:&amp;quot;Дарья, Аркадий&amp;quot;}&quot; style=&quot;overflow:hidden;padding:2px 3px 2px 3px;vertical-align:bottom;&quot;&gt;Дарья, Аркадий&lt;/td&gt;&lt;td data-sheets-value=&quot;{&amp;quot;1&amp;quot;:3,&amp;quot;3&amp;quot;:0}&quot; style=&quot;overflow:hidden;padding:2px 3px 2px 3px;vertical-align:bottom;text-align:right;&quot;&gt;0&lt;br&gt;&lt;/td&gt;&lt;/tr&gt;&lt;/tbody&gt;&lt;/table&gt;" style="rounded=0;whiteSpace=wrap;html=1;" parent="1" vertex="1">
          <mxGeometry x="220" y="830" width="120" height="60" as="geometry" />
        </mxCell>
        <mxCell id="2BTD2QdhYIqXiYjfE8cA-29" value="&lt;table style=&quot;table-layout:fixed;font-size:10pt;font-family:Arial;width:0px;border-collapse:collapse;border:none&quot; dir=&quot;ltr&quot; cellspacing=&quot;0&quot; cellpadding=&quot;0&quot; border=&quot;1&quot;&gt;&lt;colgroup&gt;&lt;col width=&quot;112&quot;&gt;&lt;col width=&quot;14&quot;&gt;&lt;/colgroup&gt;&lt;tbody&gt;&lt;tr style=&quot;height:21px;&quot;&gt;&lt;td data-sheets-value=&quot;{&amp;quot;1&amp;quot;:2,&amp;quot;2&amp;quot;:&amp;quot;Команда 4&amp;quot;}&quot; style=&quot;overflow:hidden;padding:2px 3px 2px 3px;vertical-align:bottom;&quot;&gt;Команда 4&lt;/td&gt;&lt;td style=&quot;overflow:hidden;padding:2px 3px 2px 3px;vertical-align:bottom;&quot;&gt;&lt;br&gt;&lt;/td&gt;&lt;/tr&gt;&lt;tr style=&quot;height:21px;&quot;&gt;&lt;td data-sheets-value=&quot;{&amp;quot;1&amp;quot;:2,&amp;quot;2&amp;quot;:&amp;quot;Иван, Денис&amp;quot;}&quot; style=&quot;overflow:hidden;padding:2px 3px 2px 3px;vertical-align:bottom;&quot;&gt;Иван, Денис&lt;/td&gt;&lt;td data-sheets-value=&quot;{&amp;quot;1&amp;quot;:3,&amp;quot;3&amp;quot;:1}&quot; style=&quot;overflow:hidden;padding:2px 3px 2px 3px;vertical-align:bottom;text-align:right;&quot;&gt;2&lt;br&gt;&lt;/td&gt;&lt;/tr&gt;&lt;/tbody&gt;&lt;/table&gt;" style="rounded=0;whiteSpace=wrap;html=1;" parent="1" vertex="1">
          <mxGeometry x="220" y="930" width="120" height="60" as="geometry" />
        </mxCell>
        <mxCell id="2BTD2QdhYIqXiYjfE8cA-30" value="" style="endArrow=none;html=1;rounded=0;exitX=1;exitY=0.5;exitDx=0;exitDy=0;" parent="1" edge="1">
          <mxGeometry width="50" height="50" relative="1" as="geometry">
            <mxPoint x="340" y="959.9200000000001" as="sourcePoint" />
            <mxPoint x="490" y="959.5" as="targetPoint" />
          </mxGeometry>
        </mxCell>
        <mxCell id="2BTD2QdhYIqXiYjfE8cA-31" value="" style="endArrow=none;html=1;rounded=0;exitX=1;exitY=0.5;exitDx=0;exitDy=0;" parent="1" edge="1">
          <mxGeometry width="50" height="50" relative="1" as="geometry">
            <mxPoint x="340" y="860.4200000000001" as="sourcePoint" />
            <mxPoint x="490" y="860" as="targetPoint" />
          </mxGeometry>
        </mxCell>
        <mxCell id="2BTD2QdhYIqXiYjfE8cA-33" value="" style="endArrow=none;html=1;rounded=0;" parent="1" edge="1">
          <mxGeometry width="50" height="50" relative="1" as="geometry">
            <mxPoint x="490" y="860.4200000000001" as="sourcePoint" />
            <mxPoint x="490" y="890" as="targetPoint" />
          </mxGeometry>
        </mxCell>
        <mxCell id="2BTD2QdhYIqXiYjfE8cA-34" value="" style="endArrow=none;html=1;rounded=0;entryX=0.5;entryY=1;entryDx=0;entryDy=0;" parent="1" target="2BTD2QdhYIqXiYjfE8cA-35" edge="1">
          <mxGeometry width="50" height="50" relative="1" as="geometry">
            <mxPoint x="490" y="960" as="sourcePoint" />
            <mxPoint x="490" y="950" as="targetPoint" />
          </mxGeometry>
        </mxCell>
        <mxCell id="2BTD2QdhYIqXiYjfE8cA-35" value="&lt;table style=&quot;table-layout:fixed;font-size:10pt;font-family:Arial;width:0px;border-collapse:collapse;border:none&quot; dir=&quot;ltr&quot; cellspacing=&quot;0&quot; cellpadding=&quot;0&quot; border=&quot;1&quot;&gt;&lt;colgroup&gt;&lt;col width=&quot;112&quot;&gt;&lt;col width=&quot;14&quot;&gt;&lt;/colgroup&gt;&lt;tbody&gt;&lt;tr style=&quot;height:21px;&quot;&gt;&lt;td data-sheets-value=&quot;{&amp;quot;1&amp;quot;:2,&amp;quot;2&amp;quot;:&amp;quot;Команда 4&amp;quot;}&quot; style=&quot;overflow:hidden;padding:2px 3px 2px 3px;vertical-align:bottom;&quot;&gt;Команда 4&lt;/td&gt;&lt;td style=&quot;overflow:hidden;padding:2px 3px 2px 3px;vertical-align:bottom;&quot;&gt;&lt;br&gt;&lt;/td&gt;&lt;/tr&gt;&lt;tr style=&quot;height:21px;&quot;&gt;&lt;td data-sheets-value=&quot;{&amp;quot;1&amp;quot;:2,&amp;quot;2&amp;quot;:&amp;quot;Иван, Денис&amp;quot;}&quot; style=&quot;overflow:hidden;padding:2px 3px 2px 3px;vertical-align:bottom;&quot;&gt;Иван, Денис&lt;/td&gt;&lt;td data-sheets-value=&quot;{&amp;quot;1&amp;quot;:3,&amp;quot;3&amp;quot;:1}&quot; style=&quot;overflow:hidden;padding:2px 3px 2px 3px;vertical-align:bottom;text-align:right;&quot;&gt;1&lt;br&gt;&lt;/td&gt;&lt;/tr&gt;&lt;/tbody&gt;&lt;/table&gt;" style="rounded=0;whiteSpace=wrap;html=1;" parent="1" vertex="1">
          <mxGeometry x="430" y="880" width="120" height="60" as="geometry" />
        </mxCell>
        <mxCell id="8VfVcRuJm2VkB9UWDhTg-1" value="&amp;nbsp;" style="text;whiteSpace=wrap;html=1;" parent="1" vertex="1">
          <mxGeometry x="430" y="900" width="40" height="40" as="geometry" />
        </mxCell>
        <mxCell id="8VfVcRuJm2VkB9UWDhTg-3" value="" style="endArrow=none;html=1;rounded=0;exitX=1;exitY=0.5;exitDx=0;exitDy=0;" parent="1" edge="1">
          <mxGeometry width="50" height="50" relative="1" as="geometry">
            <mxPoint x="550" y="909.9200000000001" as="sourcePoint" />
            <mxPoint x="700" y="909.5" as="targetPoint" />
          </mxGeometry>
        </mxCell>
        <mxCell id="8VfVcRuJm2VkB9UWDhTg-4" value="" style="endArrow=none;html=1;rounded=0;exitX=1;exitY=0.5;exitDx=0;exitDy=0;" parent="1" edge="1">
          <mxGeometry width="50" height="50" relative="1" as="geometry">
            <mxPoint x="550" y="750.21" as="sourcePoint" />
            <mxPoint x="700" y="749.79" as="targetPoint" />
          </mxGeometry>
        </mxCell>
        <mxCell id="8VfVcRuJm2VkB9UWDhTg-5" value="" style="endArrow=none;html=1;rounded=0;entryX=0.5;entryY=0;entryDx=0;entryDy=0;" parent="1" target="8VfVcRuJm2VkB9UWDhTg-7" edge="1">
          <mxGeometry width="50" height="50" relative="1" as="geometry">
            <mxPoint x="700" y="750.21" as="sourcePoint" />
            <mxPoint x="700" y="780" as="targetPoint" />
          </mxGeometry>
        </mxCell>
        <mxCell id="8VfVcRuJm2VkB9UWDhTg-6" value="" style="endArrow=none;html=1;rounded=0;entryX=0.5;entryY=1;entryDx=0;entryDy=0;" parent="1" target="8VfVcRuJm2VkB9UWDhTg-7" edge="1">
          <mxGeometry width="50" height="50" relative="1" as="geometry">
            <mxPoint x="700" y="910" as="sourcePoint" />
            <mxPoint x="700" y="890.71" as="targetPoint" />
          </mxGeometry>
        </mxCell>
        <mxCell id="8VfVcRuJm2VkB9UWDhTg-7" value="&lt;table style=&quot;table-layout:fixed;font-size:10pt;font-family:Arial;width:0px;border-collapse:collapse;border:none&quot; dir=&quot;ltr&quot; cellspacing=&quot;0&quot; cellpadding=&quot;0&quot; border=&quot;1&quot;&gt;&lt;colgroup&gt;&lt;col width=&quot;112&quot;&gt;&lt;col width=&quot;14&quot;&gt;&lt;/colgroup&gt;&lt;tbody&gt;&lt;tr style=&quot;height:21px;&quot;&gt;&lt;td data-sheets-value=&quot;{&amp;quot;1&amp;quot;:2,&amp;quot;2&amp;quot;:&amp;quot;Команда 3&amp;quot;}&quot; style=&quot;overflow:hidden;padding:2px 3px 2px 3px;vertical-align:bottom;&quot;&gt;Команда 3&lt;/td&gt;&lt;td style=&quot;overflow:hidden;padding:2px 3px 2px 3px;vertical-align:bottom;&quot;&gt;&lt;br&gt;&lt;/td&gt;&lt;/tr&gt;&lt;tr style=&quot;height:21px;&quot;&gt;&lt;td data-sheets-value=&quot;{&amp;quot;1&amp;quot;:2,&amp;quot;2&amp;quot;:&amp;quot;Борис, Валентин&amp;quot;}&quot; style=&quot;overflow:hidden;padding:2px 3px 2px 3px;vertical-align:bottom;&quot;&gt;Борис, Валентин&lt;/td&gt;&lt;td data-sheets-value=&quot;{&amp;quot;1&amp;quot;:3,&amp;quot;3&amp;quot;:2}&quot; style=&quot;overflow:hidden;padding:2px 3px 2px 3px;vertical-align:bottom;text-align:right;&quot;&gt;2&lt;br&gt;&lt;/td&gt;&lt;/tr&gt;&lt;/tbody&gt;&lt;/table&gt;&lt;div&gt;&lt;br&gt;&lt;/div&gt;" style="rounded=0;whiteSpace=wrap;html=1;" parent="1" vertex="1">
          <mxGeometry x="640" y="800" width="120" height="60" as="geometry" />
        </mxCell>
        <mxCell id="8VfVcRuJm2VkB9UWDhTg-8" value="&amp;nbsp;" style="text;whiteSpace=wrap;html=1;" parent="1" vertex="1">
          <mxGeometry x="390" y="620" width="40" height="40" as="geometry" />
        </mxCell>
        <mxCell id="8VfVcRuJm2VkB9UWDhTg-13" value="&lt;table style=&quot;table-layout:fixed;font-size:10pt;font-family:Arial;width:0px;border-collapse:collapse;border:none&quot; dir=&quot;ltr&quot; cellspacing=&quot;0&quot; cellpadding=&quot;0&quot; border=&quot;1&quot;&gt;&lt;colgroup&gt;&lt;col width=&quot;112&quot;&gt;&lt;col width=&quot;14&quot;&gt;&lt;/colgroup&gt;&lt;tbody&gt;&lt;tr style=&quot;height:21px;&quot;&gt;&lt;td data-sheets-value=&quot;{&amp;quot;1&amp;quot;:2,&amp;quot;2&amp;quot;:&amp;quot;Команда 3&amp;quot;}&quot; style=&quot;overflow:hidden;padding:2px 3px 2px 3px;vertical-align:bottom;&quot;&gt;Команда 3&lt;/td&gt;&lt;td style=&quot;overflow:hidden;padding:2px 3px 2px 3px;vertical-align:bottom;&quot;&gt;&lt;br&gt;&lt;/td&gt;&lt;/tr&gt;&lt;tr style=&quot;height:21px;&quot;&gt;&lt;td data-sheets-value=&quot;{&amp;quot;1&amp;quot;:2,&amp;quot;2&amp;quot;:&amp;quot;Борис, Валентин&amp;quot;}&quot; style=&quot;overflow:hidden;padding:2px 3px 2px 3px;vertical-align:bottom;&quot;&gt;Борис, Валентин&lt;/td&gt;&lt;td data-sheets-value=&quot;{&amp;quot;1&amp;quot;:3,&amp;quot;3&amp;quot;:2}&quot; style=&quot;overflow:hidden;padding:2px 3px 2px 3px;vertical-align:bottom;text-align:right;&quot;&gt;2&lt;br&gt;&lt;/td&gt;&lt;/tr&gt;&lt;/tbody&gt;&lt;/table&gt;" style="rounded=0;whiteSpace=wrap;html=1;" parent="1" vertex="1">
          <mxGeometry x="430" y="720" width="120" height="60" as="geometry" />
        </mxCell>
        <mxCell id="8VfVcRuJm2VkB9UWDhTg-16" value="" style="endArrow=none;html=1;rounded=0;exitX=1;exitY=0.5;exitDx=0;exitDy=0;" parent="1" edge="1">
          <mxGeometry width="50" height="50" relative="1" as="geometry">
            <mxPoint x="760" y="829.8300000000002" as="sourcePoint" />
            <mxPoint x="910" y="829.4100000000001" as="targetPoint" />
          </mxGeometry>
        </mxCell>
        <mxCell id="8VfVcRuJm2VkB9UWDhTg-17" value="" style="endArrow=none;html=1;rounded=0;exitX=1;exitY=0.5;exitDx=0;exitDy=0;" parent="1" edge="1">
          <mxGeometry width="50" height="50" relative="1" as="geometry">
            <mxPoint x="760" y="450.42" as="sourcePoint" />
            <mxPoint x="910" y="449.99999999999994" as="targetPoint" />
          </mxGeometry>
        </mxCell>
        <mxCell id="8VfVcRuJm2VkB9UWDhTg-18" value="" style="endArrow=none;html=1;rounded=0;entryX=0.5;entryY=0;entryDx=0;entryDy=0;" parent="1" target="8VfVcRuJm2VkB9UWDhTg-20" edge="1">
          <mxGeometry width="50" height="50" relative="1" as="geometry">
            <mxPoint x="910" y="450.42" as="sourcePoint" />
            <mxPoint x="910" y="480.21" as="targetPoint" />
          </mxGeometry>
        </mxCell>
        <mxCell id="8VfVcRuJm2VkB9UWDhTg-19" value="" style="endArrow=none;html=1;rounded=0;entryX=0.5;entryY=1;entryDx=0;entryDy=0;" parent="1" target="8VfVcRuJm2VkB9UWDhTg-20" edge="1">
          <mxGeometry width="50" height="50" relative="1" as="geometry">
            <mxPoint x="910" y="830" as="sourcePoint" />
            <mxPoint x="910" y="710.71" as="targetPoint" />
          </mxGeometry>
        </mxCell>
        <mxCell id="8VfVcRuJm2VkB9UWDhTg-20" value="&lt;table style=&quot;table-layout:fixed;font-size:10pt;font-family:Arial;width:0px;border-collapse:collapse;border:none&quot; dir=&quot;ltr&quot; cellspacing=&quot;0&quot; cellpadding=&quot;0&quot; border=&quot;1&quot;&gt;&lt;colgroup&gt;&lt;col width=&quot;112&quot;&gt;&lt;col width=&quot;14&quot;&gt;&lt;/colgroup&gt;&lt;tbody&gt;&lt;tr style=&quot;height:21px;&quot;&gt;&lt;td data-sheets-value=&quot;{&amp;quot;1&amp;quot;:2,&amp;quot;2&amp;quot;:&amp;quot;Команда 3&amp;quot;}&quot; style=&quot;overflow:hidden;padding:2px 3px 2px 3px;vertical-align:bottom;&quot;&gt;Команда 3&lt;/td&gt;&lt;td style=&quot;overflow:hidden;padding:2px 3px 2px 3px;vertical-align:bottom;&quot;&gt;&lt;br&gt;&lt;/td&gt;&lt;/tr&gt;&lt;tr style=&quot;height:21px;&quot;&gt;&lt;td data-sheets-value=&quot;{&amp;quot;1&amp;quot;:2,&amp;quot;2&amp;quot;:&amp;quot;Борис, Валентин&amp;quot;}&quot; style=&quot;overflow:hidden;padding:2px 3px 2px 3px;vertical-align:bottom;&quot;&gt;Борис, Валентин&lt;/td&gt;&lt;td data-sheets-value=&quot;{&amp;quot;1&amp;quot;:3,&amp;quot;3&amp;quot;:2}&quot; style=&quot;overflow:hidden;padding:2px 3px 2px 3px;vertical-align:bottom;text-align:right;&quot;&gt;&lt;br&gt;&lt;/td&gt;&lt;/tr&gt;&lt;/tbody&gt;&lt;/table&gt;&lt;div&gt;&lt;br&gt;&lt;/div&gt;" style="rounded=0;whiteSpace=wrap;html=1;" parent="1" vertex="1">
          <mxGeometry x="820" y="620" width="180" height="70" as="geometry" />
        </mxCell>
        <mxCell id="8VfVcRuJm2VkB9UWDhTg-21" value="&amp;nbsp;" style="text;whiteSpace=wrap;html=1;" parent="1" vertex="1">
          <mxGeometry x="130" y="560" width="40" height="40" as="geometry" />
        </mxCell>
        <mxCell id="8VfVcRuJm2VkB9UWDhTg-22" value="" style="verticalLabelPosition=bottom;verticalAlign=top;html=1;shape=mxgraph.basic.star" parent="1" vertex="1">
          <mxGeometry x="980" y="636.25" width="40" height="37.5" as="geometry" />
        </mxCell>
        <mxCell id="8VfVcRuJm2VkB9UWDhTg-23" value="&amp;nbsp;" style="text;whiteSpace=wrap;html=1;" parent="1" vertex="1">
          <mxGeometry x="1090" y="570" width="40" height="40" as="geometry" />
        </mxCell>
        <mxCell id="f5zuUtfWZXn1ZKqtXUEx-2" value="" style="shape=image;html=1;verticalLabelPosition=bottom;verticalAlign=top;imageAspect=1;aspect=fixed;image=data:image/png,iVBORw0KGgoAAAANSUhEUgAAAgAAAAIACAMAAADDpiTIAAABqlBMVEUAAAAAAAAAAAAAAAAAAAAAAAAAAAAAAAAAAAAAAAAAAAAAAAAAAAAAAAAAAAAAAAAAAAAAAAAAAAAAAAAAAAAAAAAAAAAAAAAAAAAAAAAAAAAAAAAAAAAAAAAAAAAAAAAAAAAAAAAAAAAAAAAAAAAAAAAAAAAAAAAAAAAAAAAAAAAAAAAAAAAAAAAAAAAAAAAAAAAAAAAAAAAAAAAAAAAAAAAAAAAAAAAAAAAAAAAAAAAAAAAAAAAAAAAAAAAAAAAAAAAAAAAAAAAAAAAAAAAAAAAAAAAAAAAAAAAAAAAAAAAAAAAAAAAAAAAAAAAAAAAAAAAAAAAAAAAAAAAAAAAAAAAAAAAAAAAAAAAAAAAAAAAAAAAAAAAAAAAAAAAAAAAAAAAAAAAAAAAAAAAAAAAAAAAAAAAAAAAAAAAAAAAAAAAAAAAAAAAAAAAAAAAAAAAAAAAAAAAAAAAAAAAAAAAAAAAAAAAAAAAAAAAAAAAAAAAAAAAAAAAAAAAAAAAAAAAAAAAAAAAAAAAAAAAAAAAAAAAAAAAAAAAAAAAAAAAAAAAAAAAAAAAAAABIzHG2AAAAjXRSTlMAIa+uQkcE0tUFb24S7O4VmZgx/P00wcUBWlkK4eQLhIMi9/glDa0cGKeq3ybbqXw4M+l7TfRB8Uwf+VhRHv5za++Id8CTnwOSZbEJB2Q2Dwy6NdTP2dhD1hOau0jXYyftoMcQ55EdelVSSTz6zJVQTgjyKymlofNfnLa0BqasAnnIxlbKVImHMkZpihElckO4AAAPFElEQVR42u3cCZ8dRRWG8SFCBAQchMQAKoMbOIhhCeJoJqghkJjciAoIqLgrCC64b6i4oKD3OztnlqpbM3fp6q7qc0738/8CqVR1IPO8/FhbAwAAAAAAAAAAAAAAAAAAAAAAAAAAAAAAAAAAAAAAAAAAAAAAAAAAAAAAAAAAAAAAAAAAAAAAAAAAAAAAAAAAwOhdc432CaDq2Lu0TwBN106n12mfAXqOv3s6vf4G7VNAzY3THe/RPgW03HSzfAC3vFf7HFCyPt11q/Y5oON9t+19ALef0D4JVJyc7nv/Ke2jQMEd0+BO7bOgf3d9IH4AH/yQ9mnQu7unMza0T4O+3fPh2Q/gIx/VPg96dmyaYBIYmWunhzAJjIqMACkmgVG5cXoEk8CI7I0AKSaBEVmfzsEkMBoHI0CKSWA0Tk7nYhJo42PaB8h353QBh5OA/vV//F7tE+SaHQFS/iaB+z6hfYK1zfs/qX2ETHdPF9rQPlumex74lPYR1k5Pb35Q+wxZ0hEg5WwSeOjh6SPaZ1g7M50+6iqjHpsu4WoS+PRj0+lntA+xtrVzbZ/9nPYpmrt2upSjb/ms/KNsW/sUa6du2TnGuce1j9HU0REg5WcS+PztO8f9goGfXPd+qP6igZM0ceN0BS+TwPnd0z6hfYwdF/Yu7snj2gdpYt4IkPIxCTx1695pL2ofZMel/Zv70mXtkzSwvur9fUwCVzb3DzvRPsmOqwc398SXtY+y0vwRIOVgEnj6KweH/ar2UXZcDpf6NetR8NTJ1e/vYBK475mDo952l/ZZxLPh6qxHwTuavL/5SeCeB8JJn9M+y67NeHW2o+DiESBlexJ46OF4Uv0QLE7P3J3pKHh3s/e3PQlI/gv0Q7A4M3t3hqPgshEgZXgSOJv8JvRDsNhKLs9uFDzW9P0NTwK7+S/SD8FiNwbPMBoFv978/c1OAufTU1oIweLwD1cmo+CqESD1vMVJ4CD/BRZCsLhw+PosRsGVI0DK4CRwZfPwIS2EYHHpyPXZi4Iv3Jz3AdibBGL+CyyEYHH16P2Zi4Iv5r3/dLqufeJDYv6LLIRgcXlOYTcWBZuMACljk8BM/gtshGDx7JwLNBUFm40AKVOTwGz+C2yEYLE57wItRcGGI0DK0CSQ5L/ARggWp+deoJ0o2HQESNmZBM7Ob5g2QrA4M/8GzUTBxiNAakP73PsO5b/ARggWW4uu0EYUbD4CpIxMAucXnc9GCBaHY3BkIgpmjAApC5PAkfwXWAnBYvFfsg1EwawRIKX/99grmwsPZyUEiwuL7/CkdhTMGwFS6pPA099YfDgrIVhcWnKJ2lEwcwRIKU8C8/JfYCUEi6vLLlE3CuaOACndSWBe/oushGBxeWlpVY2C2SNAal3x6HPzX2AnBIvnlt7io99UO1j+CJBSnATm57/gW2oHm2dz+TWqRcE2I0BKbRI4u6Je2AnB4vSKa9SKgq1GgJTSJLAo/wV2QrA4s/IeVaJguxEgpTMJnF95LjshWGytvkiNKNhyBEht9H/uxfkvshOCxeIYHPUfBduOAKn+J4Erm6tPZSkEiyZ/2eo9CrYeAVJ9TwLL8l9gKQSLCw3O3HcU7DACpPqdBJbmv8BSCBaXmhy63yjYZQRI9ToJLM9/gaUQLK42OnWvUbDTCJDqcRJYnv8iSyFYXG5Y3PqLgt1GgFR/k8CK/BfYCsHiuWYH7y8KdhwBUus9HXpV/gtshWDR4CeXPT1Fwa4jQKqnSWBl/gtshWCxKgbP6CMKdh8BUr1MAqvzX2ArBIvVMTjqIQoWGAFS9SeBJvkvsBWCRYMYHFWPgiVGgFT1SaBJ/otshWDRJAZHtaNgkREgtVH3xI3yX2AtBIu8f+nWjYJlRoBU3UmgWf4LrIVg0SgGR1WjYKERIFVzEmiY/wJrIVg0i8FRxShYbARI1ZsEmua/wFoIFg1jcFQtCpYbAVLVJoGm+S+yFoJF0xgc1YqCBUeAVKVJoHH+C+yFYNE0Bkd1omDJESBVZxJonv8CeyFYZP0cu69GFCw6AqTWK1xbRv4L7IVgkRGDo/JRsOwIkCo/CWTlv8BeCBY5MTgqHQVLjwCp0pNAXv4L7IVgkRWDo8JRsPgIkCo7CeTlv8heCBZ5MTgqGgXLjwCpopNAZv4LLIZg0fYfviWjYIURILVR7qy5+S+wGIJFZgyOykXBGiNAqtwkkJ3/AoshWOTG4KhYFKwyAqRKTQL5+S+wGIJFdgyOCkXBSiNAqswkkJ//IoshWOTH4KhIFKw1AqSKTAIt8l9gMwSL/Bg8o0AUrDYCpApMAm3yX2AzBIt2VeNA5yhYbwRIdZ4E2uW/wGYIFq1icNQ1ClYcAVLr3c7ZMv8FNkOwaBeDo25RsOYIkOo2CbTNf4HNECxaxuCoSxSsOwKkukwCbfNfZDME775ByxgcdYiClUeAVPtJoHX+C6yGYNH9D2HrKFh7BEi1ngTa57/AaggWrWNw1DYKVh8BUhvtTtkh/wVWQ7CYFLjadlGw/giQajcJdMl/wUvar7xEhxgctYqCPYwAqTaTQJf8F1kNwaJLDJ6RHwV7GQFS+ZNAp/wX2A3BolMMjnKjYD8jQCp3EuiY/wK7IVh0bFxBZhTsaQRI5U0CXfNfYDcEi44xOMqKgn2NAKmsSaBz/gvshmDRNQZHOVGwtxEgtd78hN3zX2A3BIvOMTi6/9tNf9H+RoBU80mge/6L7IZg0T0GR995sOGv2eMIkGo6CRTIf4HlECxKPkbDKNjrCJBqNgmUyH+B5RAsCsTgqFEU7HcESDWaBIrkv8ByCBaTohfcJAr2PAKkNlafr0z+CyyHYFEkBs9YGQX7HgFSqyeBMvkvshyCRaEYHH13RRTsfQRIrZgESuW/wHYIFoVicLQ8CiqMAKmlk0Cx/BfYDsGi+G95aRTUGAFSyyaBcvkvsB2CRbEYHC2JgiojQGrxJFAw/wW2Q7AoF4OjhVFQZwRILZwESua/wHYIFgVjcLQoCiqNAKn1+Wcrmf8i2yFYlIzB0fwoqDUCpOZPAkXzX2A9BIs6ZX5eFNQbAVLzJoGy+S+wHoJF0RgczYmCiiNA6ugkUDj/BdZDsJjUuubDUVBzBEgdmQRK57/AeggWpWNwdCgKqo4AqY3kYMXzX2Q9BIviMThKoqDuCJBKJoHy+S+wH4JF8Rgcfe+F+MsojwCpmUng+xX/amo/BIt6fwBmo6D6CJAKk0CN/BfYD8GiQgyODqKg/giQOpgEquS/wH4IFjVicLQfBQ2MAKm9SaBO/gvsh2BRJQZHu1HQwgiQ2p0E6uS/yH4IFnVicCRR0MQIkFqvlv8CDyFY1C605x63MQKkbj9RK/8FHkKwqBSDZ/yg+q9g8lAXtF+2oYn2UwyVhxAs6sXgkfMQgkXFGDxqPkKwqBiDx8xHCBY1Y/CI+QjBomoMHi8fIVjUjcGj5SMEi8oxeKx8hGBROwaPk5cQLIz857rD4iUEi4valzVEHv6L4AMT7csaIi8hWBCDK/ASggUxuDw/IVgQg4vzE4IFMbg4PyFYEIOL8xOCBTG4OD8hWBCDi/MTggUxuDRPIVgQgwvzFIIFMbiwH2q/aKaJ9oUNjacQLIjBhXkKwYIYXJavECyIwUX5CsGCGFyUrxAsiMFF+QrBghhclK8QLIjBRfkKwYIYXJK3ECyIwQV5C8GCGFyQtxAsJtqXNiTeQrAgBhfkLQQLYnA5/kKwIAYX4y8EC2JwMf5CsCAGF+MvBAticDH+QrAgBhfjLwQLYnApHkOwIAYX4jEEC2JwIR5DsJhoX9xQeAzBghhciMcQLIjBZfgMwYIYXITPECyIwUX4DMGCGFyEzxAsiMFF+AzBghhchM8QLIjBJXgNwYIYXIDXECyIwQV4DcFion15Q+A1BAticAFeQ7AgBnfnNwQLYnBnfkOwIAZ35jcEC2JwZ35DsCAGd+Y3BItt7evz70fab9gNMbgjzyFYEIM78hyCBTG4I88hWEy0L9A7zyFYEIM78hyCBTG4G98hWBCDO/EdggUxuBPfIVgQgzvxHYIFMbgT3yFYbGtfoW/OQ7AgBnfgPQQLYnAH3kOwIAZ34D0Ei4n2JXrmPQQLYnAH3kOwIAa35z8EC2Jwa/5DsCAGt+Y/BAticGv+Q7AgBrfmPwSLbe1r9GsAIVgQg1saQggWxOCWhhCCBTG4pSGEYDHRvkivhhCCBTG4pSGEYEEMbmcYIVgQg1sZRggWxOBWhhGCBTG4lWGEYEEMbmUYIVhsa1+lTwMJwYIY3MJQQrAgBrcwlBAsiMEtDCUEi4n2ZXo0lBAsiMEtDCUEC2JwvuGEYEEMzjacECyIwdmGE4LFI9rX6c+Ptd+sKGJwtuGEYLGtfZ3+DCgEC2JwpiGFYEEMzjSkECyIwZmGFILFRPtCvRlSCBbE4ExDCsGCGJxnWCFYEIOzDCsEC2JwlmGFYEEMzjKsECyIwVmGFYLFtvaV+jKwECyIwRmGFoIFMTjD0EKwIAZnGFoIFhPtS/VkaCFYEIMzDC0EC2Jwc8MLwYIY3NjwQrAgBjc2vBAsiMGNDS8Ei62X0dCW9lsBAAAAAAAAAAAAAAAAAAAAAAAAAAAAAAAAAAAAAAAAGKyXtf8PvH68rP1WfAC6+ABGjg9g5PgARo4PYOT4AEaOD2Dk+ABGjg9g5PgARo4PYOT4AEaOD2Dk+ABGjg9g5PgARo4PYOT4AEaOD2Dk+ABGbpgfwCva1+rHK9pvVcVPtK/Vj+u036qKV7Wv1Y9Xtd+qimu0r9WPLe23quL4a9r36sVrT2m/VR3PaF+sFz/VfqlKfqZ9sV5c1H6pSn6ufbFe/EL7pSp5/THtm/Xhl69rv1QtL2pfrQ/r2u9Uza/Oad+tB+d+rf1O9fxG+3I9+K32K1W0/aj27dr3u3u1X6mml7Sv177fa79RXU9q3691f9B+ocpu+KP2Ddv2p+PaL1Tbn9/QvmPL/jLYBBD99W+MQgu8dv6U9uv04sSb2jdt098f0n6Zvpz6xz+1L9ueN/81jj/++0689TxZMDh3/b//o/0i/bvp7Xf+u/7G5si9sf7WO2//T/stAAAAAAAAAAAAAAAAAAAAAAAAAAAAAAAAAAAAAAAAAAAAAAAAAAAAAAAAAAAAAAAAAAAAAAAAAAAAAAAAAAAARu7/6tBtp41Y88wAAAAASUVORK5CYII=;" parent="1" vertex="1">
          <mxGeometry x="800" y="628.25" width="45.5" height="45.5" as="geometry" />
        </mxCell>
        <mxCell id="hJ2iyyy9gh9fwRa6zhZE-1" value="&lt;table style=&quot;table-layout: fixed ; font-size: 10pt ; font-family: &amp;quot;arial&amp;quot; ; width: 0px ; border-collapse: collapse ; border: none&quot; dir=&quot;ltr&quot; cellspacing=&quot;0&quot; cellpadding=&quot;0&quot; border=&quot;1&quot;&gt;&lt;colgroup&gt;&lt;col width=&quot;112&quot;&gt;&lt;col width=&quot;14&quot;&gt;&lt;/colgroup&gt;&lt;tbody&gt;&lt;tr style=&quot;height: 21px&quot;&gt;&lt;td style=&quot;overflow: hidden ; padding: 2px 3px 2px 3px ; vertical-align: bottom&quot;&gt;Команда 1&lt;/td&gt;&lt;td style=&quot;overflow: hidden ; padding: 2px 3px 2px 3px ; vertical-align: bottom&quot;&gt;&lt;br&gt;&lt;/td&gt;&lt;/tr&gt;&lt;tr style=&quot;height: 21px&quot;&gt;&lt;td style=&quot;overflow: hidden ; padding: 2px 3px 2px 3px ; vertical-align: bottom&quot;&gt;Дарья, Денис&lt;br&gt;&lt;/td&gt;&lt;td style=&quot;overflow: hidden ; padding: 2px 3px 2px 3px ; vertical-align: bottom ; text-align: right&quot;&gt;0&lt;br&gt;&lt;/td&gt;&lt;/tr&gt;&lt;/tbody&gt;&lt;/table&gt;" style="rounded=0;whiteSpace=wrap;html=1;" parent="1" vertex="1">
          <mxGeometry x="1300" y="240" width="160" height="60" as="geometry" />
        </mxCell>
        <mxCell id="hJ2iyyy9gh9fwRa6zhZE-2" value="&lt;table style=&quot;table-layout: fixed ; font-size: 10pt ; font-family: &amp;quot;arial&amp;quot; ; width: 0px ; border-collapse: collapse ; border: none&quot; dir=&quot;ltr&quot; cellspacing=&quot;0&quot; cellpadding=&quot;0&quot; border=&quot;1&quot;&gt;&lt;colgroup&gt;&lt;col width=&quot;112&quot;&gt;&lt;col width=&quot;14&quot;&gt;&lt;/colgroup&gt;&lt;tbody&gt;&lt;tr style=&quot;height: 21px&quot;&gt;&lt;td style=&quot;overflow: hidden ; padding: 2px 3px 2px 3px ; vertical-align: bottom&quot;&gt;Команда 2&lt;/td&gt;&lt;td style=&quot;overflow: hidden ; padding: 2px 3px 2px 3px ; vertical-align: bottom&quot;&gt;&lt;br&gt;&lt;/td&gt;&lt;/tr&gt;&lt;tr style=&quot;height: 21px&quot;&gt;&lt;td style=&quot;overflow: hidden ; padding: 2px 3px 2px 3px ; vertical-align: bottom&quot;&gt;Сергей, Ксения&lt;/td&gt;&lt;td style=&quot;overflow: hidden ; padding: 2px 3px 2px 3px ; vertical-align: bottom ; text-align: right&quot;&gt;2&lt;br&gt;&lt;/td&gt;&lt;/tr&gt;&lt;/tbody&gt;&lt;/table&gt;" style="rounded=0;whiteSpace=wrap;html=1;" parent="1" vertex="1">
          <mxGeometry x="1300" y="360" width="160" height="60" as="geometry" />
        </mxCell>
        <mxCell id="hJ2iyyy9gh9fwRa6zhZE-3" value="&lt;table style=&quot;table-layout: fixed ; font-size: 10pt ; font-family: &amp;quot;arial&amp;quot; ; width: 0px ; border-collapse: collapse ; border: none&quot; dir=&quot;ltr&quot; cellspacing=&quot;0&quot; cellpadding=&quot;0&quot; border=&quot;1&quot;&gt;&lt;colgroup&gt;&lt;col width=&quot;112&quot;&gt;&lt;col width=&quot;14&quot;&gt;&lt;/colgroup&gt;&lt;tbody&gt;&lt;tr style=&quot;height: 21px&quot;&gt;&lt;td style=&quot;overflow: hidden ; padding: 2px 3px 2px 3px ; vertical-align: bottom&quot;&gt;Команда 3&lt;/td&gt;&lt;td style=&quot;overflow: hidden ; padding: 2px 3px 2px 3px ; vertical-align: bottom&quot;&gt;&lt;br&gt;&lt;/td&gt;&lt;/tr&gt;&lt;tr style=&quot;height: 21px&quot;&gt;&lt;td style=&quot;overflow: hidden ; padding: 2px 3px 2px 3px ; vertical-align: bottom&quot;&gt;Борис, Иван&lt;br&gt;&lt;/td&gt;&lt;td style=&quot;overflow: hidden ; padding: 2px 3px 2px 3px ; vertical-align: bottom ; text-align: right&quot;&gt;2&lt;br&gt;&lt;/td&gt;&lt;/tr&gt;&lt;/tbody&gt;&lt;/table&gt;" style="rounded=0;whiteSpace=wrap;html=1;" parent="1" vertex="1">
          <mxGeometry x="1300" y="456.25" width="160" height="60" as="geometry" />
        </mxCell>
        <mxCell id="hJ2iyyy9gh9fwRa6zhZE-4" value="&lt;table style=&quot;table-layout: fixed ; font-size: 10pt ; font-family: &amp;quot;arial&amp;quot; ; width: 0px ; border-collapse: collapse ; border: none&quot; dir=&quot;ltr&quot; cellspacing=&quot;0&quot; cellpadding=&quot;0&quot; border=&quot;1&quot;&gt;&lt;colgroup&gt;&lt;col width=&quot;112&quot;&gt;&lt;col width=&quot;14&quot;&gt;&lt;/colgroup&gt;&lt;tbody&gt;&lt;tr style=&quot;height: 21px&quot;&gt;&lt;td style=&quot;overflow: hidden ; padding: 2px 3px 2px 3px ; vertical-align: bottom&quot;&gt;Команда 4&lt;/td&gt;&lt;td style=&quot;overflow: hidden ; padding: 2px 3px 2px 3px ; vertical-align: bottom&quot;&gt;&lt;br&gt;&lt;/td&gt;&lt;/tr&gt;&lt;tr style=&quot;height: 21px&quot;&gt;&lt;td style=&quot;overflow: hidden ; padding: 2px 3px 2px 3px ; vertical-align: bottom&quot;&gt;Аркадий,Валентин&lt;/td&gt;&lt;td style=&quot;overflow: hidden ; padding: 2px 3px 2px 3px ; vertical-align: bottom ; text-align: right&quot;&gt;1&lt;br&gt;&lt;/td&gt;&lt;/tr&gt;&lt;/tbody&gt;&lt;/table&gt;" style="rounded=0;whiteSpace=wrap;html=1;" parent="1" vertex="1">
          <mxGeometry x="1300" y="576.25" width="160" height="60" as="geometry" />
        </mxCell>
        <mxCell id="hJ2iyyy9gh9fwRa6zhZE-6" value="" style="endArrow=none;html=1;rounded=0;exitX=1;exitY=0.5;exitDx=0;exitDy=0;" parent="1" edge="1">
          <mxGeometry width="50" height="50" relative="1" as="geometry">
            <mxPoint x="1460" y="269.62" as="sourcePoint" />
            <mxPoint x="1600" y="269.62" as="targetPoint" />
          </mxGeometry>
        </mxCell>
        <mxCell id="hJ2iyyy9gh9fwRa6zhZE-9" value="" style="endArrow=none;html=1;rounded=0;exitX=1;exitY=0.5;exitDx=0;exitDy=0;" parent="1" edge="1">
          <mxGeometry width="50" height="50" relative="1" as="geometry">
            <mxPoint x="1460" y="389.6199999999999" as="sourcePoint" />
            <mxPoint x="1600" y="389.6199999999999" as="targetPoint" />
          </mxGeometry>
        </mxCell>
        <mxCell id="hJ2iyyy9gh9fwRa6zhZE-11" value="" style="endArrow=none;html=1;rounded=0;exitX=0.5;exitY=0;exitDx=0;exitDy=0;" parent="1" edge="1">
          <mxGeometry width="50" height="50" relative="1" as="geometry">
            <mxPoint x="1600" y="300" as="sourcePoint" />
            <mxPoint x="1600" y="270" as="targetPoint" />
          </mxGeometry>
        </mxCell>
        <mxCell id="hJ2iyyy9gh9fwRa6zhZE-12" value="" style="endArrow=none;html=1;rounded=0;exitX=0.5;exitY=0;exitDx=0;exitDy=0;" parent="1" edge="1">
          <mxGeometry width="50" height="50" relative="1" as="geometry">
            <mxPoint x="1599.83" y="390" as="sourcePoint" />
            <mxPoint x="1599.83" y="360" as="targetPoint" />
          </mxGeometry>
        </mxCell>
        <mxCell id="hJ2iyyy9gh9fwRa6zhZE-14" value="" style="endArrow=none;html=1;rounded=0;exitX=1;exitY=0.5;exitDx=0;exitDy=0;" parent="1" edge="1">
          <mxGeometry width="50" height="50" relative="1" as="geometry">
            <mxPoint x="1460" y="489.17" as="sourcePoint" />
            <mxPoint x="1600" y="489.17" as="targetPoint" />
          </mxGeometry>
        </mxCell>
        <mxCell id="hJ2iyyy9gh9fwRa6zhZE-15" value="" style="endArrow=none;html=1;rounded=0;exitX=1;exitY=0.5;exitDx=0;exitDy=0;" parent="1" edge="1">
          <mxGeometry width="50" height="50" relative="1" as="geometry">
            <mxPoint x="1460" y="609.1699999999998" as="sourcePoint" />
            <mxPoint x="1600" y="609.1699999999998" as="targetPoint" />
          </mxGeometry>
        </mxCell>
        <mxCell id="hJ2iyyy9gh9fwRa6zhZE-16" value="" style="endArrow=none;html=1;rounded=0;exitX=0.5;exitY=0;exitDx=0;exitDy=0;" parent="1" edge="1">
          <mxGeometry width="50" height="50" relative="1" as="geometry">
            <mxPoint x="1600" y="519.55" as="sourcePoint" />
            <mxPoint x="1600" y="489.5499999999999" as="targetPoint" />
          </mxGeometry>
        </mxCell>
        <mxCell id="hJ2iyyy9gh9fwRa6zhZE-17" value="" style="endArrow=none;html=1;rounded=0;exitX=0.5;exitY=0;exitDx=0;exitDy=0;entryX=0.5;entryY=1;entryDx=0;entryDy=0;" parent="1" target="Ixwy2_lA16_gnc2V67VO-2" edge="1">
          <mxGeometry width="50" height="50" relative="1" as="geometry">
            <mxPoint x="1599.83" y="609.55" as="sourcePoint" />
            <mxPoint x="1599.83" y="579.55" as="targetPoint" />
          </mxGeometry>
        </mxCell>
        <mxCell id="Ixwy2_lA16_gnc2V67VO-2" value="&lt;table style=&quot;table-layout: fixed ; font-size: 10pt ; font-family: &amp;quot;arial&amp;quot; ; width: 0px ; border-collapse: collapse ; border: none&quot; dir=&quot;ltr&quot; cellspacing=&quot;0&quot; cellpadding=&quot;0&quot; border=&quot;1&quot;&gt;&lt;colgroup&gt;&lt;col width=&quot;112&quot;&gt;&lt;col width=&quot;14&quot;&gt;&lt;/colgroup&gt;&lt;tbody&gt;&lt;tr style=&quot;height: 21px&quot;&gt;&lt;td style=&quot;overflow: hidden ; padding: 2px 3px 2px 3px ; vertical-align: bottom&quot;&gt;Команда 3&lt;/td&gt;&lt;td style=&quot;overflow: hidden ; padding: 2px 3px 2px 3px ; vertical-align: bottom&quot;&gt;&lt;br&gt;&lt;/td&gt;&lt;/tr&gt;&lt;tr style=&quot;height: 21px&quot;&gt;&lt;td style=&quot;overflow: hidden ; padding: 2px 3px 2px 3px ; vertical-align: bottom&quot;&gt;Борис, Иван&lt;br&gt;&lt;/td&gt;&lt;td style=&quot;overflow: hidden ; padding: 2px 3px 2px 3px ; vertical-align: bottom ; text-align: right&quot;&gt;&lt;br&gt;&lt;/td&gt;&lt;/tr&gt;&lt;/tbody&gt;&lt;/table&gt;" style="rounded=0;whiteSpace=wrap;html=1;" parent="1" vertex="1">
          <mxGeometry x="1520" y="516.25" width="160" height="60" as="geometry" />
        </mxCell>
        <mxCell id="Ixwy2_lA16_gnc2V67VO-3" value="&lt;table style=&quot;table-layout: fixed ; font-size: 10pt ; font-family: &amp;quot;arial&amp;quot; ; width: 0px ; border-collapse: collapse ; border: none&quot; dir=&quot;ltr&quot; cellspacing=&quot;0&quot; cellpadding=&quot;0&quot; border=&quot;1&quot;&gt;&lt;colgroup&gt;&lt;col width=&quot;112&quot;&gt;&lt;col width=&quot;14&quot;&gt;&lt;/colgroup&gt;&lt;tbody&gt;&lt;tr style=&quot;height: 21px&quot;&gt;&lt;td style=&quot;overflow: hidden ; padding: 2px 3px 2px 3px ; vertical-align: bottom&quot;&gt;Команда 4&lt;/td&gt;&lt;td style=&quot;overflow: hidden ; padding: 2px 3px 2px 3px ; vertical-align: bottom&quot;&gt;&lt;br&gt;&lt;/td&gt;&lt;/tr&gt;&lt;tr style=&quot;height: 21px&quot;&gt;&lt;td style=&quot;overflow: hidden ; padding: 2px 3px 2px 3px ; vertical-align: bottom&quot;&gt;Аркадий,Валентин&lt;/td&gt;&lt;td style=&quot;overflow: hidden ; padding: 2px 3px 2px 3px ; vertical-align: bottom ; text-align: right&quot;&gt;0&lt;br&gt;&lt;/td&gt;&lt;/tr&gt;&lt;/tbody&gt;&lt;/table&gt;" style="rounded=0;whiteSpace=wrap;html=1;" parent="1" vertex="1">
          <mxGeometry x="1300" y="810" width="160" height="60" as="geometry" />
        </mxCell>
        <mxCell id="Ixwy2_lA16_gnc2V67VO-5" value="" style="endArrow=none;html=1;rounded=0;exitX=1;exitY=0.5;exitDx=0;exitDy=0;" parent="1" edge="1">
          <mxGeometry width="50" height="50" relative="1" as="geometry">
            <mxPoint x="1460" y="719.9999999999999" as="sourcePoint" />
            <mxPoint x="1600" y="719.9999999999999" as="targetPoint" />
          </mxGeometry>
        </mxCell>
        <mxCell id="Ixwy2_lA16_gnc2V67VO-6" value="" style="endArrow=none;html=1;rounded=0;exitX=1;exitY=0.5;exitDx=0;exitDy=0;" parent="1" edge="1">
          <mxGeometry width="50" height="50" relative="1" as="geometry">
            <mxPoint x="1460" y="839.9999999999999" as="sourcePoint" />
            <mxPoint x="1600" y="839.9999999999999" as="targetPoint" />
          </mxGeometry>
        </mxCell>
        <mxCell id="Ixwy2_lA16_gnc2V67VO-8" value="" style="endArrow=none;html=1;rounded=0;exitX=0.5;exitY=0;exitDx=0;exitDy=0;" parent="1" edge="1">
          <mxGeometry width="50" height="50" relative="1" as="geometry">
            <mxPoint x="1600" y="750.3800000000001" as="sourcePoint" />
            <mxPoint x="1600" y="720.38" as="targetPoint" />
          </mxGeometry>
        </mxCell>
        <mxCell id="Ixwy2_lA16_gnc2V67VO-9" value="" style="endArrow=none;html=1;rounded=0;exitX=0.5;exitY=0;exitDx=0;exitDy=0;" parent="1" edge="1">
          <mxGeometry width="50" height="50" relative="1" as="geometry">
            <mxPoint x="1599.83" y="840.38" as="sourcePoint" />
            <mxPoint x="1599.83" y="810.38" as="targetPoint" />
          </mxGeometry>
        </mxCell>
        <mxCell id="Ixwy2_lA16_gnc2V67VO-10" value="" style="endArrow=none;dashed=1;html=1;dashPattern=1 3;strokeWidth=2;rounded=0;" parent="1" edge="1">
          <mxGeometry width="50" height="50" relative="1" as="geometry">
            <mxPoint x="1260" y="660" as="sourcePoint" />
            <mxPoint x="1960" y="660" as="targetPoint" />
          </mxGeometry>
        </mxCell>
        <mxCell id="w0PtZO27qj4vPkTBwHU5-1" value="&lt;table style=&quot;table-layout: fixed ; font-size: 10pt ; font-family: &amp;quot;arial&amp;quot; ; width: 0px ; border-collapse: collapse ; border: none&quot; dir=&quot;ltr&quot; cellspacing=&quot;0&quot; cellpadding=&quot;0&quot; border=&quot;1&quot;&gt;&lt;colgroup&gt;&lt;col width=&quot;112&quot;&gt;&lt;col width=&quot;14&quot;&gt;&lt;/colgroup&gt;&lt;tbody&gt;&lt;tr style=&quot;height: 21px&quot;&gt;&lt;td style=&quot;overflow: hidden ; padding: 2px 3px 2px 3px ; vertical-align: bottom&quot;&gt;Команда 2&lt;/td&gt;&lt;td style=&quot;overflow: hidden ; padding: 2px 3px 2px 3px ; vertical-align: bottom&quot;&gt;&lt;br&gt;&lt;/td&gt;&lt;/tr&gt;&lt;tr style=&quot;height: 21px&quot;&gt;&lt;td style=&quot;overflow: hidden ; padding: 2px 3px 2px 3px ; vertical-align: bottom&quot;&gt;Сергей, Ксения&lt;/td&gt;&lt;td style=&quot;overflow: hidden ; padding: 2px 3px 2px 3px ; vertical-align: bottom ; text-align: right&quot;&gt;&lt;br&gt;&lt;/td&gt;&lt;/tr&gt;&lt;/tbody&gt;&lt;/table&gt;" style="rounded=0;whiteSpace=wrap;html=1;" vertex="1" parent="1">
          <mxGeometry x="1520" y="300" width="160" height="60" as="geometry" />
        </mxCell>
        <mxCell id="w0PtZO27qj4vPkTBwHU5-2" value="&lt;table style=&quot;table-layout: fixed ; font-size: 10pt ; font-family: &amp;quot;arial&amp;quot; ; width: 0px ; border-collapse: collapse ; border: none&quot; dir=&quot;ltr&quot; cellspacing=&quot;0&quot; cellpadding=&quot;0&quot; border=&quot;1&quot;&gt;&lt;colgroup&gt;&lt;col width=&quot;112&quot;&gt;&lt;col width=&quot;14&quot;&gt;&lt;/colgroup&gt;&lt;tbody&gt;&lt;tr style=&quot;height: 21px&quot;&gt;&lt;td style=&quot;overflow: hidden ; padding: 2px 3px 2px 3px ; vertical-align: bottom&quot;&gt;Команда 1&lt;/td&gt;&lt;td style=&quot;overflow: hidden ; padding: 2px 3px 2px 3px ; vertical-align: bottom&quot;&gt;&lt;br&gt;&lt;/td&gt;&lt;/tr&gt;&lt;tr style=&quot;height: 21px&quot;&gt;&lt;td style=&quot;overflow: hidden ; padding: 2px 3px 2px 3px ; vertical-align: bottom&quot;&gt;Дарья, Денис&lt;br&gt;&lt;/td&gt;&lt;td style=&quot;overflow: hidden ; padding: 2px 3px 2px 3px ; vertical-align: bottom ; text-align: right&quot;&gt;2&lt;br&gt;&lt;/td&gt;&lt;/tr&gt;&lt;/tbody&gt;&lt;/table&gt;" style="rounded=0;whiteSpace=wrap;html=1;" vertex="1" parent="1">
          <mxGeometry x="1300" y="690" width="160" height="60" as="geometry" />
        </mxCell>
        <mxCell id="w0PtZO27qj4vPkTBwHU5-3" value="" style="endArrow=none;html=1;rounded=0;exitX=1;exitY=0.5;exitDx=0;exitDy=0;" edge="1" parent="1">
          <mxGeometry width="50" height="50" relative="1" as="geometry">
            <mxPoint x="1680" y="330" as="sourcePoint" />
            <mxPoint x="1820" y="330" as="targetPoint" />
          </mxGeometry>
        </mxCell>
        <mxCell id="w0PtZO27qj4vPkTBwHU5-4" value="" style="endArrow=none;html=1;rounded=0;exitX=1;exitY=0.5;exitDx=0;exitDy=0;" edge="1" parent="1">
          <mxGeometry width="50" height="50" relative="1" as="geometry">
            <mxPoint x="1680" y="545.7499999999999" as="sourcePoint" />
            <mxPoint x="1820" y="545.7499999999999" as="targetPoint" />
          </mxGeometry>
        </mxCell>
        <mxCell id="w0PtZO27qj4vPkTBwHU5-5" value="" style="endArrow=none;html=1;rounded=0;exitX=0.5;exitY=0;exitDx=0;exitDy=0;" edge="1" parent="1" source="w0PtZO27qj4vPkTBwHU5-7">
          <mxGeometry width="50" height="50" relative="1" as="geometry">
            <mxPoint x="1820" y="360.38" as="sourcePoint" />
            <mxPoint x="1820" y="330.38" as="targetPoint" />
          </mxGeometry>
        </mxCell>
        <mxCell id="w0PtZO27qj4vPkTBwHU5-6" value="" style="endArrow=none;html=1;rounded=0;entryX=0.5;entryY=1;entryDx=0;entryDy=0;" edge="1" parent="1" target="w0PtZO27qj4vPkTBwHU5-7">
          <mxGeometry width="50" height="50" relative="1" as="geometry">
            <mxPoint x="1820" y="540" as="sourcePoint" />
            <mxPoint x="1820" y="500" as="targetPoint" />
          </mxGeometry>
        </mxCell>
        <mxCell id="w0PtZO27qj4vPkTBwHU5-7" value="&lt;table style=&quot;table-layout: fixed ; font-size: 10pt ; font-family: &amp;quot;arial&amp;quot; ; width: 0px ; border-collapse: collapse ; border: none&quot; dir=&quot;ltr&quot; cellspacing=&quot;0&quot; cellpadding=&quot;0&quot; border=&quot;1&quot;&gt;&lt;colgroup&gt;&lt;col width=&quot;112&quot;&gt;&lt;col width=&quot;14&quot;&gt;&lt;/colgroup&gt;&lt;tbody&gt;&lt;tr style=&quot;height: 21px&quot;&gt;&lt;td style=&quot;overflow: hidden ; padding: 2px 3px 2px 3px ; vertical-align: bottom&quot;&gt;&lt;br&gt;&lt;/td&gt;&lt;td style=&quot;overflow: hidden ; padding: 2px 3px 2px 3px ; vertical-align: bottom&quot;&gt;&lt;br&gt;&lt;/td&gt;&lt;/tr&gt;&lt;tr style=&quot;height: 21px&quot;&gt;&lt;td style=&quot;overflow: hidden ; padding: 2px 3px 2px 3px ; vertical-align: bottom&quot;&gt;&lt;br&gt;&lt;/td&gt;&lt;td style=&quot;overflow: hidden ; padding: 2px 3px 2px 3px ; vertical-align: bottom ; text-align: right&quot;&gt;&lt;br&gt;&lt;/td&gt;&lt;/tr&gt;&lt;/tbody&gt;&lt;/table&gt;" style="rounded=0;whiteSpace=wrap;html=1;" vertex="1" parent="1">
          <mxGeometry x="1740" y="400" width="160" height="60" as="geometry" />
        </mxCell>
        <mxCell id="w0PtZO27qj4vPkTBwHU5-13" value="&lt;table style=&quot;table-layout: fixed ; font-size: 10pt ; font-family: &amp;quot;arial&amp;quot; ; width: 0px ; border-collapse: collapse ; border: none&quot; dir=&quot;ltr&quot; cellspacing=&quot;0&quot; cellpadding=&quot;0&quot; border=&quot;1&quot;&gt;&lt;colgroup&gt;&lt;col width=&quot;112&quot;&gt;&lt;col width=&quot;14&quot;&gt;&lt;/colgroup&gt;&lt;tbody&gt;&lt;tr style=&quot;height: 21px&quot;&gt;&lt;td style=&quot;overflow: hidden ; padding: 2px 3px 2px 3px ; vertical-align: bottom&quot;&gt;Команда 1&lt;/td&gt;&lt;td style=&quot;overflow: hidden ; padding: 2px 3px 2px 3px ; vertical-align: bottom&quot;&gt;&lt;br&gt;&lt;/td&gt;&lt;/tr&gt;&lt;tr style=&quot;height: 21px&quot;&gt;&lt;td style=&quot;overflow: hidden ; padding: 2px 3px 2px 3px ; vertical-align: bottom&quot;&gt;Дарья, Денис&lt;br&gt;&lt;/td&gt;&lt;td style=&quot;overflow: hidden ; padding: 2px 3px 2px 3px ; vertical-align: bottom ; text-align: right&quot;&gt;&lt;br&gt;&lt;/td&gt;&lt;/tr&gt;&lt;/tbody&gt;&lt;/table&gt;" style="rounded=0;whiteSpace=wrap;html=1;" vertex="1" parent="1">
          <mxGeometry x="1520" y="750" width="160" height="60" as="geometry" />
        </mxCell>
      </root>
    </mxGraphModel>
  </diagram>
</mxfile>
